<?xml version="1.0" encoding="UTF-8" standalone="no"?>
<!-- Created with Inkscape (http://www.inkscape.org/) -->
<svg
   xmlns:dc="http://purl.org/dc/elements/1.1/"
   xmlns:cc="http://web.resource.org/cc/"
   xmlns:rdf="http://www.w3.org/1999/02/22-rdf-syntax-ns#"
   xmlns:svg="http://www.w3.org/2000/svg"
   xmlns="http://www.w3.org/2000/svg"
   xmlns:sodipodi="http://sodipodi.sourceforge.net/DTD/sodipodi-0.dtd"
   xmlns:inkscape="http://www.inkscape.org/namespaces/inkscape"
   width="744.09448819"
   height="1052.3622047"
   id="svg2"
   sodipodi:version="0.32"
   inkscape:version="0.45"
   sodipodi:modified="true">
  <defs
     id="defs4">
    <filter
       inkscape:collect="always"
       x="-0.35901669"
       width="1.7180334"
       y="-0.17057854"
       height="1.3411571"
       id="filter11583">
      <feGaussianBlur
         inkscape:collect="always"
         stdDeviation="11.642293"
         id="feGaussianBlur11585" />
    </filter>
    <filter
       inkscape:collect="always"
       x="-0.33352592"
       width="1.6670518"
       y="-0.13773574"
       height="1.2754715"
       id="filter11587">
      <feGaussianBlur
         inkscape:collect="always"
         stdDeviation="11.642293"
         id="feGaussianBlur11589" />
    </filter>
    <filter
       inkscape:collect="always"
       x="-0.23087111"
       width="1.4617422"
       y="-0.13510023"
       height="1.2702005"
       id="filter11681">
      <feGaussianBlur
         inkscape:collect="always"
         stdDeviation="26.761186"
         id="feGaussianBlur11683" />
    </filter>
    <filter
       inkscape:collect="always"
       x="-0.31478554"
       width="1.6295711"
       y="-0.32561882"
       height="1.6512376"
       id="filter14848">
      <feGaussianBlur
         inkscape:collect="always"
         stdDeviation="13.903797"
         id="feGaussianBlur14850" />
    </filter>
    <filter
       inkscape:collect="always"
       x="-0.26141666"
       width="1.5228333"
       y="-0.24694223"
       height="1.4938845"
       id="filter14852">
      <feGaussianBlur
         inkscape:collect="always"
         stdDeviation="13.903797"
         id="feGaussianBlur14854" />
    </filter>
    <clipPath
       clipPathUnits="userSpaceOnUse"
       id="clipPath15844">
      <path
         style="fill:#9e9e9e;fill-opacity:1;fill-rule:evenodd;stroke:#000000;stroke-width:4.19999981;stroke-linecap:butt;stroke-linejoin:miter;stroke-miterlimit:4;stroke-dasharray:none;stroke-opacity:1"
         d="M 175.71538,28.1875 C 140.57913,28.976943 103.06119,40.837941 81.652884,70.25 C 67.694249,90.709503 66.879812,116.54278 62.888315,140.16602 C 52.194698,229.2173 66.871933,322.67872 112.59038,400.3125 C 122.99749,417.09778 134.48597,434.72554 151.99663,444.5 C 163.17441,447.82751 173.53131,439.52943 182.09038,433.40625 C 213.5602,408.0354 235.63096,373.13836 255.445,338.43502 C 284.53643,285.42035 306.8345,227.31841 311.12029,166.41008 C 313.34285,131.04834 306.64085,92.319099 280.66452,66.542893 C 253.60827,39.153077 213.62363,27.511614 175.71538,28.1875 z "
         id="path15846" />
    </clipPath>
    <filter
       inkscape:collect="always"
       x="-0.21472727"
       width="1.4294545"
       y="-0.22890783"
       height="1.4578157"
       id="filter17961">
      <feGaussianBlur
         inkscape:collect="always"
         stdDeviation="36.069106"
         id="feGaussianBlur17963" />
    </filter>
    <filter
       inkscape:collect="always"
       id="filter19947">
      <feGaussianBlur
         inkscape:collect="always"
         stdDeviation="7.5359165"
         id="feGaussianBlur19949" />
    </filter>
  </defs>
  <sodipodi:namedview
     id="base"
     pagecolor="#ffffff"
     bordercolor="#666666"
     borderopacity="1.0"
     gridtolerance="10000"
     guidetolerance="10"
     objecttolerance="10"
     inkscape:pageopacity="0.0"
     inkscape:pageshadow="2"
     inkscape:zoom="0.52468884"
     inkscape:cx="448.41245"
     inkscape:cy="767.80094"
     inkscape:document-units="px"
     inkscape:current-layer="layer2"
     inkscape:window-width="1016"
     inkscape:window-height="690"
     inkscape:window-x="0"
     inkscape:window-y="0" />
  <metadata
     id="metadata7">
    <rdf:RDF>
      <cc:Work
         rdf:about="">
        <dc:format>image/svg+xml</dc:format>
        <dc:type
           rdf:resource="http://purl.org/dc/dcmitype/StillImage" />
      </cc:Work>
    </rdf:RDF>
  </metadata>
  <g
     inkscape:groupmode="layer"
     id="layer2"
     style="display:inline">
    <g
       id="g15852"
       transform="matrix(0.9415679,-0.3368234,0.3368234,0.9415679,-8.3127243,59.213836)">
      <path
         transform="translate(32.92548,-2.74379)"
         d="M 152.28034 -21.145643 A 62.078247 98.776436 0 1 1  28.123848,-21.145643 A 62.078247 98.776436 0 1 1  152.28034 -21.145643 z"
         sodipodi:ry="98.776436"
         sodipodi:rx="62.078247"
         sodipodi:cy="-21.145643"
         sodipodi:cx="90.202095"
         id="path7044"
         style="opacity:1;fill:#ffffff;fill-opacity:1;stroke:#000000;stroke-width:4.19999981;stroke-miterlimit:4;stroke-dasharray:none;stroke-opacity:1"
         sodipodi:type="arc" />
      <path
         id="path9970"
         d="M 121.625,-90.3125 C 105.3627,-85.182597 99.220242,-67.191787 95.565117,-52.187332 C 87.515219,-20.351175 92.816582,17.096158 116.625,40.90625 C 126.83574,45.252889 136.77381,35.731071 139.9375,26.65625 C 158.14808,-5.6238665 156.55669,-48.086617 137.28125,-79.3125 C 133.54925,-84.517638 128.31613,-89.929433 121.625,-90.3125 z "
         style="opacity:0.48295456;fill:#000000;fill-opacity:1;stroke:#000000;stroke-width:4.19999981;stroke-miterlimit:4;stroke-dasharray:none;stroke-opacity:1;filter:url(#filter11583)" />
    </g>
    <g
       id="g15848"
       transform="matrix(0.8693869,0.4941319,-0.4941319,0.8693869,72.085433,-89.738907)">
      <path
         transform="translate(-27.4379,8.2313699)"
         style="fill:#ffffff;fill-opacity:1;stroke:#000000;stroke-width:4.19999981;stroke-miterlimit:4;stroke-opacity:1"
         d="M 351.89107,-17.372932 C 351.89107,46.049771 322.8508,97.52327 287.06903,97.52327 C 251.28727,97.52327 222.24699,46.049771 222.24699,-17.372932 C 222.24699,-80.795636 254.30507,-126.13238 287.06903,-132.26913 C 319.83299,-138.40588 351.89107,-80.795636 351.89107,-17.372932 z "
         id="path7050"
         sodipodi:nodetypes="csszc" />
      <path
         id="path9972"
         d="M 259.5625,-92 C 243.28122,-87.267118 237.1779,-69.204857 232.78125,-54.5625 C 219.66777,-12.728288 224.07888,36.805789 252.78125,71.28125 C 260.87316,76.134954 269.42881,68.497297 273.03125,61.5625 C 290.42791,36.86442 292.14403,4.9825396 291.12385,-24.337546 C 289.13893,-48.975485 281.17679,-75.27223 261.75,-91.5625 C 261.07103,-91.87058 260.33467,-92.148447 259.5625,-92 z "
         style="opacity:0.48295456;fill:#000000;fill-opacity:1;stroke:#000000;stroke-width:4.19999981;stroke-miterlimit:4;stroke-dasharray:none;stroke-opacity:1;filter:url(#filter11587)" />
    </g>
    <path
       sodipodi:type="arc"
       style="opacity:1;fill:#9b9b9b;fill-opacity:1;stroke:#000000;stroke-width:4.19999981;stroke-miterlimit:4;stroke-dasharray:none;stroke-opacity:1"
       id="path17969"
       sodipodi:cx="-45.635586"
       sodipodi:cy="577.60486"
       sodipodi:rx="22.081736"
       sodipodi:ry="40.483181"
       d="M -23.55385 577.60486 A 22.081736 40.483181 0 1 1  -67.717321,577.60486 A 22.081736 40.483181 0 1 1  -23.55385 577.60486 z"
       transform="matrix(0.9584754,0.6510715,-0.5696742,0.8386463,345.55303,89.788109)" />
    <path
       sodipodi:type="arc"
       style="opacity:1;fill:#9b9b9b;fill-opacity:1;stroke:#000000;stroke-width:4.19999981;stroke-miterlimit:4;stroke-dasharray:none;stroke-opacity:1;display:inline"
       id="path17971"
       sodipodi:cx="-45.635586"
       sodipodi:cy="577.60486"
       sodipodi:rx="22.081736"
       sodipodi:ry="40.483181"
       d="M -23.55385 577.60486 A 22.081736 40.483181 0 1 1  -67.717321,577.60486 A 22.081736 40.483181 0 1 1  -23.55385 577.60486 z"
       transform="matrix(0.9629141,-0.6444887,0.5639144,0.84253,43.99951,42.619828)"
       inkscape:transform-center-x="-38.71349"
       inkscape:transform-center-y="-44.686022" />
    <g
       id="g19999"
       transform="translate(-66.706203,7.623566)">
      <path
         sodipodi:nodetypes="cssscsszcc"
         id="path17973"
         d="M 128.07406,475.29283 C 135.43464,475.29283 431.3299,391.38223 519.65684,435.5457 C 607.98379,479.70917 653.89904,636.89995 602.09532,672.55633 C 507.09782,737.94289 404.32862,759.89229 194.31927,744.68999 C 103.60832,738.12355 66.245207,719.66403 66.245207,719.66403 C 66.245207,719.66403 191.52445,741.27221 260.56448,735.85731 C 409.24817,724.08039 490.93004,708.52872 568.23666,662.25152 C 619.6896,631.45081 581.83342,512.56685 512.29626,467.93225 C 441.41473,422.43472 257.91213,489.64215 147.72394,535.72815 L 128.07406,475.29283 z "
         style="fill:#565656;fill-opacity:1;fill-rule:evenodd;stroke:#000000;stroke-width:1px;stroke-linecap:butt;stroke-linejoin:miter;stroke-opacity:1" />
      <path
         sodipodi:nodetypes="ccccccccccccccccc"
         id="path17975"
         d="M 439.625,429.90625 C 343.57173,432.44396 249.49571,454.34846 156.42967,476.46283 C 151.22755,478.40402 142.33564,478.5693 139.45151,481.62615 C 149.71767,503.79244 146.6426,499.27624 156.90876,521.44252 C 223.95874,492.33347 296.79978,470.7987 369.53931,455.37965 C 418.68634,444.58601 470.60462,449.0818 518.25,464.3125 C 561.80798,496.4607 596.65048,544.42128 602.97177,599.27656 C 605.25055,622.91391 599.31924,649.60617 579.41001,664.40067 C 556.26258,680.67491 529.7622,691.77034 503.375,701.9375 C 426.85131,729.42639 344.96557,735.79802 264.5,743 C 254.54685,743.46004 270.87454,743.48006 274.12079,743.7126 C 356.00414,746.24942 440.2473,742.77683 517.4375,713.375 C 549.08681,700.62278 580.18261,685.23261 606.75,663.6875 C 622.97075,644.28586 621.37562,616.93252 618.0521,593.38898 C 609.41483,541.66595 583.43786,492.09565 543.59375,457.8125 C 525.10408,442.36656 501.82781,432.92153 477.9125,431.57584 C 465.21126,430.12776 452.3996,429.79231 439.625,429.90625 z "
         style="opacity:0.73863639;fill:#ffffff;fill-opacity:1;fill-rule:evenodd;stroke:none;stroke-width:1px;stroke-linecap:butt;stroke-linejoin:miter;stroke-opacity:1;display:inline;filter:url(#filter19947)" />
    </g>
    <path
       transform="translate(-7.3605785,29.442314)"
       style="fill:#b3b3b3;fill-opacity:1;stroke:#000000;stroke-width:4.19999981;stroke-miterlimit:4;stroke-opacity:1"
       d="M 365.0847,406.83945 C 345.9472,581.61492 277.91627,585.18696 170.76543,590.11786 C 53.235634,595.59413 -28.394625,558.83729 -23.553848,406.83945 C -20.333462,305.72103 63.501187,223.56104 170.76543,223.56104 C 278.02967,223.56104 365.0847,305.66976 365.0847,406.83945 z "
       id="path15856"
       sodipodi:nodetypes="csssc" />
    <path
       style="fill:#ffffff;fill-opacity:1;stroke:none;stroke-width:4.19999981;stroke-miterlimit:4;stroke-opacity:1;display:inline;filter:url(#filter17961)"
       d="M 162.78125,280.84375 C 89.843154,280.01349 18.305107,332.69569 2,404.53125 C -9.3510329,453.91845 -5.5115376,509.29385 22.46875,552.5625 C 44.449242,580.71981 80.770682,593.36307 115.68127,594.56403 C 162.1777,598.32322 209.20795,594.31359 254.72741,584.92631 C 280.84449,576.70917 302.82738,555.63643 311.71601,529.60125 C 326.91183,494.39089 333.37632,455.42468 331.75,417.125 C 323.35783,355.47335 273.57505,303.5109 214.1707,287.70056 C 197.53302,282.86884 180.1451,280.58008 162.78125,280.84375 z "
       id="path16828" />
    <path
       style="fill:#9e9e9e;fill-opacity:1;fill-rule:evenodd;stroke:#000000;stroke-width:4.19999981;stroke-linecap:butt;stroke-linejoin:miter;stroke-miterlimit:4;stroke-dasharray:none;stroke-opacity:1"
       d="M 66.605085,94.382668 C 21.971444,296.59848 125.25836,448.47626 155.88424,448.66503 C 219.34009,449.05615 378.09111,174.04132 289.09441,68.874338 C 230.19536,-0.72639473 85.062584,10.759683 66.605085,94.382668 z "
       id="path5085"
       sodipodi:nodetypes="csss" />
    <path
       style="fill:#ffffff;fill-opacity:1;fill-rule:evenodd;stroke:#000000;stroke-width:4.19999981;stroke-linecap:butt;stroke-linejoin:miter;stroke-miterlimit:4;stroke-dasharray:none;stroke-opacity:1;filter:url(#filter11681)"
       d="M 177.25,40.875 C 146.09695,41.24874 112.48242,52.313667 94,78.65625 C 76.644214,106.54213 79.014062,140.98734 74.996235,172.49585 C 69.603257,260.05472 90.743636,351.03916 144.21875,421.40625 C 149.41485,427.93667 157.80804,436.12377 166.6875,431.4375 C 182.45734,423.18301 193.77359,408.56024 205.32638,395.54371 C 246.46713,345.84981 274.25562,286.07539 291.75,224.1875 C 301.34426,188.36131 306.3717,149.52 296.25,113.28125 C 286.94633,78.821984 255.94773,54.237785 222.1875,46 C 207.53835,42.120019 192.39738,40.656144 177.25,40.875 z "
       id="path11591"
       clip-path="url(#clipPath15844)" />
    <path
       style="fill:#000000;fill-opacity:1;fill-rule:evenodd;stroke:#000000;stroke-width:1px;stroke-linecap:butt;stroke-linejoin:miter;stroke-opacity:1"
       d="M 155.02413,449.58582 C 155.02413,449.58582 127.92921,431.5797 125.52839,426.60658 C 123.12758,421.63346 149.70804,404.65626 160.6832,405.5137 C 171.65836,406.37113 200.98262,420.60454 199.26775,422.66238 C 197.55288,424.72023 167.71416,449.24285 163.59848,449.24285 C 159.48279,449.24285 154.68116,449.75731 155.02413,449.58582 z "
       id="path6057" />
    <path
       style="fill:none;fill-rule:evenodd;stroke:#000000;stroke-width:1px;stroke-linecap:butt;stroke-linejoin:miter;stroke-opacity:1"
       d="M 207.15614,367.78658 L 336.11427,383.56338"
       id="path7028" />
    <path
       style="fill:none;fill-rule:evenodd;stroke:#000000;stroke-width:1px;stroke-linecap:butt;stroke-linejoin:miter;stroke-opacity:1"
       d="M 196.18098,390.42285 L 329.2548,419.91859"
       id="path7030" />
    <path
       style="fill:none;fill-rule:evenodd;stroke:#000000;stroke-width:1px;stroke-linecap:butt;stroke-linejoin:miter;stroke-opacity:1"
       d="M 215.38751,378.76174 L 365.61001,413.05912"
       id="path7032" />
    <path
       style="fill:none;fill-rule:evenodd;stroke:#000000;stroke-width:1px;stroke-linecap:butt;stroke-linejoin:miter;stroke-opacity:1"
       d="M 122.09865,405.5137 L 63.793117,456.95976"
       id="path7034" />
    <path
       style="fill:none;fill-rule:evenodd;stroke:#000000;stroke-width:1px;stroke-linecap:butt;stroke-linejoin:miter;stroke-opacity:1"
       d="M 116.61107,368.47253 L 8.9173174,406.19964"
       id="path7036" />
    <path
       style="fill:none;fill-rule:evenodd;stroke:#000000;stroke-width:1px;stroke-linecap:butt;stroke-linejoin:miter;stroke-opacity:1"
       d="M 128.95813,386.99311 L 48.702272,415.80291"
       id="path7038" />
    <path
       style="fill:none;fill-rule:evenodd;stroke:#000000;stroke-width:1px;stroke-linecap:butt;stroke-linejoin:miter;stroke-opacity:1"
       d="M 103.57807,344.46437 C 103.57807,344.46437 31.553585,350.6379 25.380057,367.10064 C 19.20653,383.56338 19.892477,383.56338 19.892477,383.56338"
       id="path7040" />
    <path
       style="fill:none;fill-rule:evenodd;stroke:#000000;stroke-width:1px;stroke-linecap:butt;stroke-linejoin:miter;stroke-opacity:1"
       d="M 187.26367,396.59638 C 192.75125,397.96827 286.72605,469.30681 286.72605,469.30681 L 287.412,472.73655 L 340.22996,491.94308"
       id="path7042" />
    <path
       sodipodi:type="arc"
       style="opacity:1;fill:#d3d3d3;fill-opacity:1;stroke:#000000;stroke-width:4.19999981;stroke-miterlimit:4;stroke-dasharray:none;stroke-opacity:1"
       id="path17965"
       sodipodi:cx="-15.457215"
       sodipodi:cy="590.85388"
       sodipodi:rx="25.762024"
       sodipodi:ry="37.538952"
       d="M 10.304809 590.85388 A 25.762024 37.538952 0 1 1  -41.219239,590.85388 A 25.762024 37.538952 0 1 1  10.304809 590.85388 z"
       transform="matrix(0.8617398,0.5073505,-0.5073505,0.8617398,338.85215,95.422276)" />
    <path
       sodipodi:type="arc"
       style="opacity:1;fill:#d3d3d3;fill-opacity:1;stroke:#000000;stroke-width:4.19999981;stroke-miterlimit:4;stroke-dasharray:none;stroke-opacity:1"
       id="path17967"
       sodipodi:cx="270.86929"
       sodipodi:cy="609.99139"
       sodipodi:rx="23.553852"
       sodipodi:ry="39.011066"
       d="M 294.42315 609.99139 A 23.553852 39.011066 0 1 1  247.31544,609.99139 A 23.553852 39.011066 0 1 1  294.42315 609.99139 z"
       transform="matrix(0.9492635,-0.3144818,0.3144818,0.9492635,-164.83918,108.7717)" />
  </g>
  <g
     inkscape:groupmode="layer"
     id="layer4" />
  <g
     inkscape:groupmode="layer"
     id="layer3" />
  <g
     inkscape:label="Layer 1"
     inkscape:groupmode="layer"
     id="layer1"
     style="display:inline">
    <path
       sodipodi:type="arc"
       style="opacity:1;fill:#c7c7c7;fill-opacity:1;stroke:#000000;stroke-width:4.0999999;stroke-miterlimit:4;stroke-dasharray:none;stroke-opacity:1"
       id="path2162"
       sodipodi:cx="141.00438"
       sodipodi:cy="191.45604"
       sodipodi:rx="70.147911"
       sodipodi:ry="74.3993"
       d="M 211.15229 191.45604 A 70.147911 74.3993 0 1 1  70.856468,191.45604 A 70.147911 74.3993 0 1 1  211.15229 191.45604 z"
       transform="translate(-5.6685178,-19.839812)" />
    <path
       sodipodi:type="arc"
       style="opacity:1;fill:#c7c7c7;fill-opacity:1;stroke:#000000;stroke-width:4.0999999;stroke-miterlimit:4;stroke-dasharray:none;stroke-opacity:1"
       id="path2164"
       sodipodi:cx="240.912"
       sodipodi:cy="248.14122"
       sodipodi:rx="62.353695"
       sodipodi:ry="60.228001"
       d="M 303.2657 248.14122 A 62.353695 60.228001 0 1 1  178.55831,248.14122 A 62.353695 60.228001 0 1 1  303.2657 248.14122 z"
       transform="translate(4.2513884,-56.685178)" />
    <path
       style="opacity:1;fill:#ffffff;fill-opacity:1;stroke:none;stroke-width:4.0999999;stroke-miterlimit:4;stroke-dasharray:none;stroke-opacity:1;filter:url(#filter14852)"
       d="M 134,115 C 97.091103,115.85131 70.152599,159.62238 84.71875,193.21875 C 95.134221,220.06433 129.69612,235.98431 156.25,222.9375 C 187.99507,207.99427 198.03584,159.8065 172.9375,134.4375 C 163.38607,123.08671 149.29217,114.37597 134,115 z "
       id="path11687" />
    <path
       sodipodi:type="arc"
       style="opacity:1;fill:#000000;fill-opacity:1;stroke:#000000;stroke-width:4.0999999;stroke-miterlimit:4;stroke-dasharray:none;stroke-opacity:1"
       id="path4107"
       sodipodi:cx="124.70739"
       sodipodi:cy="177.9933"
       sodipodi:rx="18.422684"
       sodipodi:ry="18.422684"
       d="M 143.13007 177.9933 A 18.422684 18.422684 0 1 1  106.28471,177.9933 A 18.422684 18.422684 0 1 1  143.13007 177.9933 z" />
    <path
       style="opacity:1;fill:#ffffff;fill-opacity:1;stroke:none;stroke-width:4.0999999;stroke-miterlimit:4;stroke-dasharray:none;stroke-opacity:1;filter:url(#filter14848)"
       d="M 242.8125,148.40625 C 213.16484,147.57155 190.21065,183.5174 203.84375,209.96875 C 216.97308,237.29905 260.64931,242.64916 279.0625,217.9375 C 297.04619,197.36356 286.98329,160.14673 260.84375,152 C 255.17907,149.55981 249.0128,148.20799 242.8125,148.40625 z "
       id="path11689" />
    <path
       sodipodi:type="arc"
       style="opacity:1;fill:#000000;fill-opacity:1;stroke:#000000;stroke-width:4.0999999;stroke-miterlimit:4;stroke-dasharray:none;stroke-opacity:1"
       id="path4113"
       sodipodi:cx="245.87196"
       sodipodi:cy="218.3815"
       sodipodi:rx="14.879859"
       sodipodi:ry="14.879859"
       d="M 260.75182 218.3815 A 14.879859 14.879859 0 1 1  230.9921,218.3815 A 14.879859 14.879859 0 1 1  260.75182 218.3815 z" />
  </g>
</svg>
